<svg xmlns="http://www.w3.org/2000/svg" version="1.1" viewBox="-5.0 -10.0 110.0 135.0">
 <path d="m28.301 84.699c0.19922 0.19922 0.5 0.30078 0.69922 0.30078 0.30078 0 0.5-0.10156 0.69922-0.30078 0.5-0.5 12.699-11.398 12.699-28.102 0-7.3984-6-13.398-13.398-13.398s-13.398 6-13.398 13.398c0 16.801 12.199 27.602 12.699 28.102zm0.69922-39.301c6.1992 0 11.199 5 11.199 11.199 0 13.402-8.5977 23.102-11.199 25.703-2.6016-2.6016-11.102-12.301-11.102-25.699 0-6.2031 5-11.203 11.102-11.203zm8.1992 11.203c0-4.5-3.6016-8.1016-8.1016-8.1016-4.4961 0-8.0977 3.6016-8.0977 8.1016s3.6016 8.1016 8.1016 8.1016c4.5-0.003906 8.0977-3.6016 8.0977-8.1016zm-14.098 0c0-3.3008 2.6992-5.8984 5.8984-5.8984 3.3008 0 5.8984 2.6992 5.8984 5.8984 0 3.3008-2.6992 5.8984-5.8984 5.8984s-5.8984-2.6992-5.8984-5.8984zm42.199-37c0 11.699 8.5 19.301 8.8008 19.602 0.19922 0.19922 0.5 0.30078 0.69922 0.30078 0.30078 0 0.5-0.10156 0.69922-0.30078 0.39844-0.30078 8.8008-7.8984 8.8008-19.602 0-5.3008-4.3008-9.6016-9.6016-9.6016-5.1992 0-9.3984 4.3008-9.3984 9.6016zm16.801 0c0 8.6992-5.3008 15.102-7.3008 17.199-2-2.1016-7.3008-8.5-7.3008-17.199 0-4 3.3008-7.3008 7.3008-7.3008s7.3008 3.1992 7.3008 7.3008zm-12.602 0c0 2.8984 2.3984 5.3008 5.3008 5.3008 2.8984 0 5.3008-2.3984 5.3008-5.3008 0-2.8984-2.3984-5.3008-5.3008-5.3008-2.9023-0.10156-5.3008 2.3008-5.3008 5.3008zm8.3984 0c0 1.6992-1.3984 3.1016-3.1016 3.1016-1.6992 0-3.1016-1.3984-3.1016-3.1016 0.003907-1.7031 1.4062-3.1016 3.1055-3.1016 1.6992-0.10156 3.0977 1.3008 3.0977 3.1016zm-46.699 70.398c0.60156 0 1.1016-0.5 1.1016-1.1016 0-0.60156-0.5-1.1016-1.1016-1.1016-0.69922 0-1.3984 0-2.1992-0.10156-0.60156 0-1.1016 0.39844-1.1992 1 0 0.60156 0.39844 1.1016 1 1.1992 0.89844 0.10547 1.6992 0.10547 2.3984 0.10547zm4.6016-0.10156c1.5-0.10156 3-0.19922 4.5-0.5 0.60156-0.10156 1-0.60156 0.89844-1.3008-0.10156-0.60156-0.60156-1-1.3008-0.89844-1.5 0.19922-2.8984 0.40234-4.3984 0.40234-0.60156 0-1.1016 0.60156-1 1.1992 0.10156 0.69922 0.60156 1.0977 1.3008 1.0977-0.10156 0-0.10156 0 0 0zm11.199-33.297c-0.60156-0.10156-1.1992 0.19922-1.3008 0.79688-0.19922 0.60156-0.19922 1.3008-0.19922 1.9023 0 0.80078 0.10156 1.5 0.30078 2.3008 0.097657 0.29688 0.19922 0.59766 0.39844 0.89844 0.19922 0.39844 0.60156 0.60156 1 0.60156 0.19922 0 0.30078 0 0.5-0.10156 0.5-0.30078 0.80078-0.89844 0.5-1.5-0.097657-0.19922-0.19922-0.39844-0.19922-0.60156-0.19922-0.60156-0.19922-1.1016-0.19922-1.6992 0-0.5 0.10156-0.89844 0.19922-1.3984-0.10156-0.40234-0.5-1-1-1.1992zm20.898-14.301c-1.5 0.19922-3 0.60156-4.5 1.1016-0.59766 0.19922-0.89844 0.79688-0.69922 1.3984 0.10156 0.5 0.60156 0.80078 1.1016 0.80078 0.10156 0 0.19922 0 0.30078-0.10156 1.3984-0.39844 2.8008-0.80078 4.1992-1 0.60156-0.10156 1-0.69922 0.89844-1.3008-0.097657-0.5-0.69922-1-1.3008-0.89844zm-12.297 7c0.19922 0 0.39844-0.10156 0.60156-0.19922 1.3008-0.80078 2.6016-1.3984 3.8008-2 0.60156-0.30078 0.80078-0.89844 0.5-1.5-0.30078-0.60156-0.89844-0.80078-1.5-0.5-1.3984 0.60156-2.6992 1.3984-4 2.1992-0.5 0.30078-0.69922 1-0.39844 1.5 0.29297 0.30078 0.69531 0.5 0.99609 0.5zm-5.6016 16.598c1.1992 0.5 2.6992 1 4.5 1.3984h0.19922c0.5 0 1-0.39844 1.1016-0.89844 0.10156-0.60156-0.30078-1.1992-0.89844-1.3008-1.6992-0.39844-3-0.80078-4-1.1992-0.60156-0.19922-1.1992 0-1.5 0.60156-0.30078 0.5-0.003906 1.1992 0.59766 1.3984zm-0.39844-11.398c0.80078-1 1.8008-2 3-2.8984 0.5-0.40234 0.59766-1.1016 0.19922-1.6016-0.39844-0.5-1.1016-0.60156-1.6016-0.19922-1.3984 1.1016-2.5 2.1992-3.3984 3.3008-0.40234 0.5-0.30078 1.1992 0.19922 1.5977 0.19922 0.19922 0.5 0.19922 0.69922 0.19922 0.40234 0 0.69922-0.097657 0.90234-0.39844zm12 28.898c0.10156 0 0.30078 0 0.39844-0.10156 1.6016-0.59766 2.8984-1.2969 4.1992-1.8984 0.5-0.30078 0.69922-1 0.5-1.5-0.30078-0.5-1-0.80078-1.5-0.5-1.1992 0.60156-2.3984 1.1992-4 1.8008-0.60156 0.19922-0.80078 0.89844-0.60156 1.3984 0.10156 0.60156 0.60156 0.80078 1.0039 0.80078zm-17.102 5.3008h0.19922c1.5-0.30078 2.8984-0.69922 4.3984-1 0.60156-0.19922 0.89844-0.80078 0.80078-1.3984-0.19922-0.60156-0.79688-0.90234-1.3984-0.80078-1.3984 0.39844-2.8008 0.69922-4.3008 1-0.60156 0.10156-1 0.69922-0.89844 1.3008 0.30078 0.5 0.69922 0.89844 1.1992 0.89844zm16.398-20.398c0.80078 0.097657 1.6016 0.19922 2.4023 0.30078h0.19922c0.5 0 1-0.39844 1.1016-0.89844 0.10156-0.60156-0.30078-1.1992-0.89844-1.3008-0.80078-0.10156-1.6016-0.19922-2.3984-0.30078l-2-0.30078c-0.60156-0.10156-1.1992 0.30078-1.3008 0.89844-0.10547 0.60156 0.29688 1.1992 0.89453 1.3008zm-7.6992 18.098c0.10156 0 0.19922 0 0.30078-0.10156 1.3984-0.5 2.8984-0.89844 4.3008-1.3984 0.59766-0.19922 0.89844-0.79688 0.69922-1.3984s-0.80078-0.89844-1.3984-0.69922c-1.3984 0.5-2.8008 1-4.1992 1.3984-0.60156 0.19922-0.89844 0.80078-0.69922 1.3984 0.097656 0.50391 0.49609 0.80078 0.99609 0.80078zm19.402-12.898c-0.60156-0.19922-1.2031 0-1.4023 0.60156-0.39844 1-1.1992 2-2.3984 3-0.5 0.39844-0.5 1.1016-0.19922 1.6016 0.19922 0.29688 0.5 0.39844 0.89844 0.39844 0.19922 0 0.5-0.10156 0.69922-0.30078 1.5-1.1992 2.5-2.5 3.1016-3.8984 0.097657-0.50391-0.19922-1.1016-0.69922-1.4023zm-5.8008-5.3984c-0.19922 0.59766 0.19922 1.1992 0.80078 1.3984 1.6992 0.39844 2.8984 1 3.3984 1.6016 0.19922 0.30078 0.5 0.39844 0.80078 0.39844s0.5-0.10156 0.69922-0.30078c0.5-0.39844 0.5-1.1016 0.10156-1.6016-0.89844-1-2.3008-1.6992-4.5-2.3008-0.5-0.097656-1.1016 0.20312-1.3008 0.80469zm7.8984-23.801h0.10156c0.60156 0 1.1016-0.39844 1.1016-1 0.10156-0.60156-0.39844-1.1992-1-1.1992-0.80078-0.10156-1.5039-0.10156-2.3008-0.10156-0.60156 0-1.1016 0.5-1.1016 1.1016 0 0.60156 0.5 1.1016 1.1016 1.1016 0.69922-0.003906 1.3984-0.003906 2.0977 0.097656z"/>
</svg>